<svg version="1.2" xmlns="http://www.w3.org/2000/svg" viewBox="0 0 3250 1300" width="3250" height="1300">
	<title>vecteezy_game-level-map-with-tropical-islands-in-sea_12746762-ai</title>
	<defs>
		<clipPath clipPathUnits="userSpaceOnUse" id="cp1">
			<path d="m3250 1300h-3250v-1300h3250z"/>
		</clipPath>
		<radialGradient id="g1" cx="0" cy="0" r="1" gradientUnits="userSpaceOnUse" gradientTransform="matrix(0,704.382,-704.382,0,1625,650)">
			<stop offset="0" stop-color="#53ffdb"/>
			<stop offset="1" stop-color="#0fa7e0"/>
		</radialGradient>
	</defs>
	<style>
		.s0 { fill: url(#g1) } 
		.s1 { fill: #ccecf6 } 
	</style>
	<g id="background">
		<g id="&lt;Clip Group&gt;" clip-path="url(#cp1)">
			<g id="&lt;Group&gt;">
				<path id="&lt;Path&gt;" class="s0" d="m0 0h3250v1300h-3250z"/>
				<g id="&lt;Group&gt;" style="mix-blend-mode: multiply">
					<path id="&lt;Path&gt;" class="s1" d="m33.6 332.3c-62.5 107.9 131.5 128.7 185.9 63.7 54.3-65.1-118.1-180.5-185.9-63.7z"/>
					<path id="&lt;Path&gt;" class="s1" d="m54.6 220.4c-43.5 45.8 80.2 47.3 104.8 28.4 24.5-18.9-50.3-85.8-104.8-28.4z"/>
					<path id="&lt;Path&gt;" class="s1" d="m113.3 31.6c-96.2 63.9 279.3 125.2 396 46.8 116.7-78.4-312.6-102.2-396-46.8z"/>
					<path id="&lt;Path&gt;" class="s1" d="m885.1 38.6c-58.2 13.2 87.9 67.3 166.5 62.4 78.5-5 60.5-114.2-166.5-62.4z"/>
					<path id="&lt;Path&gt;" class="s1" d="m1087.5 111.2c-17.7-10.4 17.2-27.7 33.2-15.1 16 12.7-11.9 27.7-33.2 15.1z"/>
					<path id="&lt;Path&gt;" class="s1" d="m1196.4 41.8c-51 21.5 58.3 100.8 164.7 68.9 106.5-31.9 112.4-62.3 114.8-68.9 2.4-6.5-127.1-64-279.5 0z"/>
					<path id="&lt;Path&gt;" class="s1" d="m1149 32.8c-22.4 32 34.8 13.1 47.4-4.1 12.6-17.2-31.9-18.1-47.4 4.1z"/>
					<path id="&lt;Path&gt;" class="s1" d="m837.2 535.1c-85.3 68.2 81.6 94.6 139.7 39.4 58-55.2-100.9-70.4-139.7-39.4z"/>
					<path id="&lt;Path&gt;" class="s1" d="m786.1 511.3c-27.2 32.9 28.5 26.9 46.3 7.3 17.8-19.6-31.5-25.1-46.3-7.3z"/>
					<path id="&lt;Path&gt;" class="s1" d="m1365 1292c-74.2-9.5 51.4-113.6 198.1-104.7 146.7 8.9 150.3 77.6 151.8 95.2 1.5 17.5-262.8 20.8-349.9 9.5z"/>
					<path id="&lt;Path&gt;" class="s1" d="m1624.2 1144.1c-18.5 47 44.5 35.1 54.8-3.6 10.3-38.7-48.5-12.3-54.8 3.6z"/>
					<path id="&lt;Path&gt;" class="s1" d="m1292.9 1252.1c-19.2 33.6 44.4 14.1 53.6-6.2 9.2-20.3-36.3-24-53.6 6.2z"/>
					<path id="&lt;Path&gt;" class="s1" d="m2972.1 33c-126.7 2-40.5 201.4 84.3 219.2 124.7 17.9 171.3-223-84.3-219.2z"/>
					<path id="&lt;Path&gt;" class="s1" d="m3125.3 12.3c-65 10.4 28.7 65.1 59.9 64.6 31.2-0.6 22.2-77.8-59.9-64.6z"/>
					<path id="&lt;Path&gt;" class="s1" d="m2878.7 732.4c-68.6 38.1-29.6 107.6 31.9 74.1 61.6-33.5 21.2-103.6-31.9-74.1z"/>
					<path id="&lt;Path&gt;" class="s1" d="m2797.7 33c-46.1 26.1 63.6 63.1 89.5 38.2 25.9-24.8-31.2-71.3-89.5-38.2z"/>
					<path id="&lt;Path&gt;" class="s1" d="m2877.3 95c-21.2-1.4-4.3 27.7 12.4 30.2 16.6 2.4 14.7-28.3-12.4-30.2z"/>
					<path id="&lt;Path&gt;" class="s1" d="m2256.3 866.4c-13.2 69.2 74.1 68.2 105.9-6.2 31.9-74.4-95.2-49.5-105.9 6.2z"/>
					<path id="&lt;Path&gt;" class="s1" d="m1841.2 800.4c-32.7 53.9 48 68.9 95.4 36 47.4-32.8-72.4-73.9-95.4-36z"/>
					<path id="&lt;Path&gt;" class="s1" d="m39 1282.5c-14.7-48.5 109.7-43.9 244.1-13.2 134.4 30.7-205.2 142.1-244.1 13.2z"/>
					<path id="&lt;Path&gt;" class="s1" d="m1844.3 121.2c-101.5 35.6-108.8 167.5 113.2 166.9 222.1-0.6 82-235.4-113.2-166.9z"/>
					<path id="&lt;Path&gt;" class="s1" d="m1941.2 43.9c-81.8 43.9 28.7 70.8 109.3 61.2 80.5-9.5-24.4-106.8-109.3-61.2z"/>
					<path id="&lt;Path&gt;" class="s1" d="m2242.6 41.4c-19 39.7 68 58.9 102.6 8.7 34.6-50.1-90.9-33.3-102.6-8.7z"/>
					<path id="&lt;Path&gt;" class="s1" d="m2052.3 118.1c-25.8 16.9 9.8 29.7 27 11.2 17.2-18.5-17.6-17.3-27-11.2z"/>
					<path id="&lt;Path&gt;" class="s1" d="m2069.7 428.5c-47.3-32.4 16.1-99.8 85.1-69.6 69 30.2-52.8 91.8-85.1 69.6z"/>
					<path id="&lt;Path&gt;" class="s1" d="m2820.3 79.5c-34.6 0-3.7 15.7 9.8 12.8 13.6-2.8-1.2-12.8-9.8-12.8z"/>
					<path id="&lt;Path&gt;" class="s1" d="m3202.1 121.2c-27.1 9-61.9 114 0 131 62 17.1 52.6-148.6 0-131z"/>
					<path id="&lt;Path&gt;" class="s1" d="m1892.1 751.9c-27.9 4.3 8.6 29.2 23.5 21.9 14.9-7.2 1.2-25.7-23.5-21.9z"/>
					<path id="&lt;Path&gt;" class="s1" d="m2227.7 1304.6c-75.1-44 44-87.7 114.3-78.8 70.3 8.9 128.1 71.5 117.9 88.3-10.3 16.8-193 13.5-232.2-9.5z"/>
					<path id="&lt;Path&gt;" class="s1" d="m2367.3 1203.3c-61.7-4.5-13-62.8 33.8-68.2 46.8-5.4-4.3 70.4-33.8 68.2z"/>
					<path id="&lt;Path&gt;" class="s1" d="m1392.7 1199.1c-30.9 23.4 12.4 15.9 28.4 4.2 15.9-11.6-19.7-10.8-28.4-4.2z"/>
					<path id="&lt;Path&gt;" class="s1" d="m780.1 1298.6c-139.1-28.9 141-136.4 304.4-115.5 163.5 20.9 149.8 105.9 134.5 124.4-15.4 18.5-351.3 9.2-438.9-8.9z"/>
					<path id="&lt;Path&gt;" class="s1" d="m-44 857.9c-5.3 136.4 237.8-46.8 252.8-133.4 14.9-86.6-246.2-35.8-252.8 133.4z"/>
					<path id="&lt;Path&gt;" class="s1" d="m303.1 1230c-39.4 16.1 57.6 59 125.8 49.2 68.2-9.9 2.9-101.6-125.8-49.2z"/>
					<path id="&lt;Path&gt;" class="s1" d="m2273.3 782.9c-34.5 20.1 20.1 26.6 40.1 14.3 20-12.3-11.9-30.7-40.1-14.3z"/>
				</g>
			</g>
		</g>
	</g>
	<g id="objects">
	</g>
</svg>